<svg width="200" height="200" viewBox="0 0 200 200" xmlns="http://www.w3.org/2000/svg">
  <rect x="0" y="0" width="200" height="200" rx="40" fill="#1a1a2e"/>

  <!-- 그리드 라인 -->
  <line x1="20" y1="65" x2="47" y2="65" stroke="#6c63ff" stroke-width="1" stroke-linecap="round" opacity="0.3"/>
  <line x1="153" y1="65" x2="180" y2="65" stroke="#6c63ff" stroke-width="1" stroke-linecap="round" opacity="0.3"/>
  <line x1="20" y1="135" x2="47" y2="135" stroke="#6c63ff" stroke-width="1" stroke-linecap="round" opacity="0.3"/>
  <line x1="153" y1="135" x2="180" y2="135" stroke="#6c63ff" stroke-width="1" stroke-linecap="round" opacity="0.3"/>
  <line x1="65" y1="20" x2="65" y2="47" stroke="#6c63ff" stroke-width="1" stroke-linecap="round" opacity="0.3"/>
  <line x1="135" y1="20" x2="135" y2="47" stroke="#6c63ff" stroke-width="1" stroke-linecap="round" opacity="0.3"/>
  <line x1="65" y1="153" x2="65" y2="180" stroke="#6c63ff" stroke-width="1" stroke-linecap="round" opacity="0.3"/>
  <line x1="135" y1="153" x2="135" y2="180" stroke="#6c63ff" stroke-width="1" stroke-linecap="round" opacity="0.3"/>

  <!-- 코너 점 -->
  <circle cx="65" cy="65" r="2.5" fill="#6c63ff" opacity="0.4"/>
  <circle cx="135" cy="65" r="2.5" fill="#6c63ff" opacity="0.4"/>
  <circle cx="65" cy="135" r="2.5" fill="#6c63ff" opacity="0.4"/>
  <circle cx="135" cy="135" r="2.5" fill="#6c63ff" opacity="0.4"/>

  <!-- 상단 흐름 (teal) -->
  <path d="M 28 90 L 60 90 Q 70 90 70 80 L 70 68 Q 70 58 80 58 L 120 58 Q 130 58 130 68 L 130 80 Q 130 90 140 90 L 172 90"
        fill="none" stroke="#3ecfb2" stroke-width="1.8" stroke-linecap="round"/>

  <!-- 하단 흐름 (purple) -->
  <path d="M 28 110 L 60 110 Q 70 110 70 120 L 70 132 Q 70 142 80 142 L 120 142 Q 130 142 130 132 L 130 120 Q 130 110 140 110 L 172 110"
        fill="none" stroke="#6c63ff" stroke-width="1.8" stroke-linecap="round"/>

  <!-- 수직 연결 -->
  <line x1="100" y1="68" x2="100" y2="83" stroke="#3ecfb2" stroke-width="1.5" stroke-linecap="round" opacity="0.6"/>
  <line x1="100" y1="117" x2="100" y2="132" stroke="#6c63ff" stroke-width="1.5" stroke-linecap="round" opacity="0.6"/>

  <!-- 중앙 칩 -->
  <rect x="83" y="83" width="34" height="34" rx="5" fill="none" stroke="#6c63ff" stroke-width="1.8"/>
  <rect x="86" y="86" width="28" height="28" rx="3" fill="#6c63ff" opacity="0.12"/>

  <!-- 핀 (왼쪽) -->
  <line x1="83" y1="91" x2="77" y2="91" stroke="#6c63ff" stroke-width="1.5" stroke-linecap="round"/>
  <line x1="83" y1="100" x2="77" y2="100" stroke="#6c63ff" stroke-width="1.5" stroke-linecap="round"/>
  <line x1="83" y1="109" x2="77" y2="109" stroke="#6c63ff" stroke-width="1.5" stroke-linecap="round"/>

  <!-- 핀 (오른쪽) -->
  <line x1="117" y1="91" x2="123" y2="91" stroke="#3ecfb2" stroke-width="1.5" stroke-linecap="round"/>
  <line x1="117" y1="100" x2="123" y2="100" stroke="#3ecfb2" stroke-width="1.5" stroke-linecap="round"/>
  <line x1="117" y1="109" x2="123" y2="109" stroke="#3ecfb2" stroke-width="1.5" stroke-linecap="round"/>

  <!-- 화살표 심볼 -->
  <line x1="91" y1="100" x2="107" y2="100" stroke="#ffffff" stroke-width="1.8" stroke-linecap="round"/>
  <polyline points="103,96 107,100 103,104" fill="none" stroke="#ffffff" stroke-width="1.8" stroke-linecap="round" stroke-linejoin="round"/>

  <!-- 엔드포인트 점 -->
  <circle cx="28" cy="90" r="2.5" fill="#3ecfb2"/>
  <circle cx="28" cy="110" r="2.5" fill="#6c63ff"/>
  <circle cx="172" cy="90" r="2.5" fill="#3ecfb2"/>
  <circle cx="172" cy="110" r="2.5" fill="#6c63ff"/>
  <circle cx="100" cy="58" r="2.5" fill="#3ecfb2"/>
  <circle cx="100" cy="142" r="2.5" fill="#6c63ff"/>

  <!-- 코너 장식 (좌상) -->
  <polyline points="22,46 22,22 46,22" fill="none" stroke="#6c63ff" stroke-width="1.2" stroke-linecap="round" opacity="0.5"/>
  <circle cx="22" cy="46" r="2" fill="#6c63ff" opacity="0.5"/>

  <!-- 코너 장식 (우상) -->
  <polyline points="178,46 178,22 154,22" fill="none" stroke="#3ecfb2" stroke-width="1.2" stroke-linecap="round" opacity="0.5"/>
  <circle cx="178" cy="46" r="2" fill="#3ecfb2" opacity="0.5"/>

  <!-- 코너 장식 (좌하) -->
  <polyline points="22,154 22,178 46,178" fill="none" stroke="#6c63ff" stroke-width="1.2" stroke-linecap="round" opacity="0.5"/>
  <circle cx="22" cy="154" r="2" fill="#6c63ff" opacity="0.5"/>

  <!-- 코너 장식 (우하) -->
  <polyline points="178,154 178,178 154,178" fill="none" stroke="#3ecfb2" stroke-width="1.2" stroke-linecap="round" opacity="0.5"/>
  <circle cx="178" cy="154" r="2" fill="#3ecfb2" opacity="0.5"/>
</svg>
